<?xml version="1.0" encoding="UTF-8"?>
<svg viewBox="0 0 196.169 270" xmlns="http://www.w3.org/2000/svg">
 <path d="m182.97,128.883c-5.694,10.06-20.119,31.127-30.747,44.982-10.629,13.855-24.105,28.28-27.521,32.646s-4.555,5.504-5.314,6.833c-.061.105-.129.236-.2.38-.294,4.028-1.047,14.206-1.526,19.549-.128,1.416-.329,3.044-.588,4.749 .188.233.35.354.416.755 .096.569.285,1.234.285,1.234s-.095,1.139-.095,1.708 .189,1.044.38,1.708 .379,1.139.664,1.613c.285.474-.189,1.233-.189,2.183s-.096.475-.096.854 0,.948.096,1.423c.094.475-.19.569-.096,1.234 .096.664-.095.664 0,1.423s-1.177,1.728-1.177,1.728 .038-.684-.815-1.253-.38-.664-.76-1.613-.095-1.519-.095-2.467c0-.858-.003-1.483-.212-2.156-.725,2.757-1.573,5.167-2.502,6.616-2.373,3.701-3.96,5.088-6.169,3.15-.263-.23-.509-.507-.741-.811 .225,1.253.516,6.618.59,8.099 .076,1.519.684,3.113.531,4.024s.076,1.519-1.063,1.897-5.543.38-8.124.456c-2.581.075-6.747.075-7.364.123s-.949-.095-1.186-.237-.475-.475-.475-.475-.19.143-.237.332-.285.428-.285.428-.237-.475-.189-.854-.143-1.233-.237-1.756c-.095-.521.142-.616.427-.948 .285-.333.185-1.756.143-3.274-.048-1.708.047-4.128 0-6.169s.711-2.135 1.139-2.847 1.368-.992 1.368-.992-.009-.194.039-.479 .03-.885-.018-1.691-.006-2.017-.006-2.017-1.265-.389-1.771-.778c-.308-.237-.181-.496.056-.828s1.186-1.115 1.851-1.495 1.091-.308 1.091-.308 .078-.747.12-1.411c-.421.091-.801.199-1.308.164-1.028-.072-.685-.807-.014-1.332 .497-.389.848-.6 1.282-.796-.037-.333-.091-.743-.175-1.37-.054-.403-.087-.688-.109-.9l-.014-.144c-.003-.039-.007-.074-.009-.106s-.004-.055-.006-.079-.003-.043-.004-.061c-.002-.032-.003-.059-.003-.08-1.033-.804-2.166-2.591-3.08-4.087-1.044-1.708-12.242-21.067-13.286-22.302-1.044-1.233-23.63-29.514-30.842-39.193s-27.901-35.683-37.581-61.115-7.972-38.909-4.365-50.866c3.603-11.957 11.195-24.104 22.962-30.178 2.278-3.986 4.325-12.015 20.688-20.688 18.98-10.06 33.974-1.139 33.974-1.139s6.833-9.49 20.688-9.87 22.017,10.249 22.017,10.249 17.702-6.153 34.164,4.555c19.55,12.717 22.396,27.711 22.396,27.711s15.184,12.716 16.322,34.733-7.4,41.567-13.095,51.626zm-94.037,139.373c0,0-.072.201-.029.331s.043.461.043.461 .101-.13.115-.331-.129-.461-.129-.461zm3.234-21.816c-.253.063-.846.434-1.036.591-.166.138-.183.167-.272.276l-.024.035c0,0 .042.009.062.055 .014.032.005.055.005.055s.056.025.127.045c.408.108 1.21.249 1.21.249s.181-1.369-.072-1.306zm-9.318-31.41c-1.8-.683-4.034-.869-4.034-.869s1.427,1.18 3.6,1.862 4.593.807 4.593.807-2.36-1.118-4.159-1.8zm20.367,38.172c0,0 .81-.215 1.429-.146-.612-1.345-1.09-2.796-1.486-3.935-.085-.247-.162-.487-.23-.72 .06,1.947.287,4.801.287,4.801zm-.303-5.619v.004c.455,1.596 1.15,3.73 2.037,5.534l.013.004c.489.184.683.765.858,1.537 .795,1.205 1.699,2.031 2.691,2.031 2.722,0 5.217-5.482 6.725-10.838-.028-.356.127-.66.29-1.071 .116-.451.226-.897.326-1.338 .136-.917.173-1.643-.071-2.297-.216-.574-.918-1.58-1.248-2.038-.148.25-.3.49-.461.709-3.416,4.65-5.884,5.562-8.352,5.182-1.293-.199-2.218-.674-2.809-1.081 .001.916.001,2.187.001,3.662zm-.122-5.071c.371-.07.884-.196 1.341-.407 .822-.38.424-.943-.46-1.143-.253-.057-.584-.087-.87-.123-.013.048-.027.09-.041.14-.177.659-.067,1.153.03,1.533zm-.941-.85c.151-.531-.152-.455-.152-1.29 0-.273-.017-.502-.039-.691l-1.188.029v1.978c0,0 .007.68-.002,1.01-.002.065.145.076.314.066 .245-.014.467.012.76-.026 .093-.29.214-.753.307-1.076zm-2.921,3.485c.333.101.583.427.601.951 .012.375-.117.919-.301,1.216-.111.182-.11.293-.089.412s.087.242.14.286l.157.107 .044-.037c0,0 .162.054.351.237s.704.885.765,1.337c.33,2.455.809,3.474.919,3.883 0-2.332-.151-7.73-.151-7.926 0-.029-.02-.056-.051-.08 .002-.052.003-.102.006-.151 .075-1.746-.076-1.898.075-2.277 .034-.084.067-.178.101-.275-.773.057-1.684-.003-2.289-.003l-.23-.003c-.012.156-.025.315-.039.461-.04.421-.002,1.463-.009,1.862zm-2.956,8.936c.012.11.037.185.037.185l.024.081 1.491-.034v-2.52l-.342.448c-.198.247-.408.642-.593.777s-.469.47-.469.47l-.247.21c0,.001.086.272.099.383zm-2.373-8.961c.219-.014.434-.008.598.038 .54.151.756.346.886.821 .13.476.194.8.043,1.08s-.389.411-.454.627-.022.432-.022.432l.259.021 .194.346-.086.087c0,0 .151.086.302.476s.302.734.346,1.145 .151.8.173,1.124 .086.756.086.756 .367-.41.562-.734 .303-.648.454-.864c.138-.197.42-.557.583-.849v-1.655c-.143.014-.365.023-.443-.014-.092-.043-.129-.107-.124-.188s.038-.081.032-.146-.065-.081-.076-.118 .043-.049.043-.049-.06-.027-.06-.06 .038-.038.038-.086-.054-.128-.108-.128-.198-.065-.16-.124 .125-.215.182-.311c.064-.109.168-.188.109-.264-.083-.104-.09-.315-.098-.399-.008-.086-.008-.113-.013-.176l-.059.002v.001c.002.052.009.084.017.104-.011-.019-.024-.045-.029-.076-.021.047-.033.103-.018.156 .015.056.03.086.042.104-.04-.042-.099-.136-.027-.282v-.006l-.086.004c-.002.013-.004.025-.004.039 0,.101.013.151.022.175-.018-.036-.05-.12-.029-.213l-.059.001 .06-.003c.008-.032.021-.064.044-.097 0-.08.032-.184.195-.245 .012-.005.022-.009.033-.012 .013-.031.035-.063.074-.09l-.042.001 .047-.022 .003-.001-.003.001-.005.001c.057-.025.093-.035.095-.038l.028.008 .025-.006 .003-.001-.015.011c-.003-.001-.005-.001 0,.001v-.001l.008.004c.003.001.002,0 0,0 .03-.006.022-.021.021-.025v.001l-.005.003c.004-.008-.002-.02.012-.022 0-.015.048-.03.046-.045-.071-.005-.171.061-.256.031-.072-.025-.139-.046-.159-.111 .046.08.225.148.474.039l.013-.003c-.003-.036.211-.063.212-.098 .005-.376.071-1.161.036-1.628-.021-.261-.023-.441-.021-.567-.403.126-.622.077-1.246.077-.696,0-.558-.19-1.19-.253s-.455-.569-.455-.569 .055-.402.099-.614c.007-.036-.33.001-.699.044-.088.011-.178.032-.267.052l-.16.93 .037,1.861-.073-.011 .015.6zm3.551.36-.106-.011c-.032.02-.061.046-.077.083l.01-.004c.003-.008.005-.016.01-.023 .003.001.031.003.066.017 .012-.007.021-.029.031-.035 0-.007 0-.013.018-.019 .01-.009.039,0 .048-.008zm-.184.113-.015.001c-.001.006-.002.01-.004.015l.019-.016zm-.246.245c-.016.021-.027.045-.034.073l.086-.006c0-.044.014-.095.059-.15-.03.013-.073.036-.105.076-.002.034.002.054.005.069-.004-.015-.009-.036-.011-.062zm.133-.022v-.002c-.003.004-.035.04-.063.091l.06-.005c.007-.044.002-.076.003-.084zm-.042.034 .038-.055-.007-.034c-.029.035-.052.079-.054.127 .006-.013.014-.025.023-.038zm-.021-.107 .05-.037 .036-.012c.012-.024.03-.05.058-.074 0-.007.001-.015.002-.022-.066.011-.166.045-.194.148-.006.021-.01.039-.012.056 .016-.021.035-.041.06-.059zm-2.015-4.817v-.696l-.054-.38-.61.015-.015.049-.297,1.743 .942-.141 .034-.59zm-3.654,2.071c-.633.506-.958,1.125-.173,1.251 .369.06 1.001-.059 1.413-.169 .016-.273.027-.538.027-.748 0-.383-.012-.716-.048-1.075-.58.288-.918.499-1.219.741zm6.008-26.502c-3.079-.073-7.347.517-7.347.517s4.88.648 7.195.584 7.149-.648 7.149-.648-4.294-.389-6.997-.453zm14.851-.838c-1.994.386-4.894,1.098-4.894,1.098s3.083.071 5.077-.379 4.318-1.36 4.318-1.36-2.507.254-4.501.641zm.193,10.591c-4.596,6.896-8.367,12.635-8.863,13.389l-.063.002c-.136.311-.314.715-.44,1.121 .224.033.643.09.99.189 .713.202.924.529.817.799-.145.367-.86.625-1.803.85 .054.214.101.441.101.732v.383c1.203.647 3.57,1.622 5.656.68 2.695-1.217 4.973-3.964 6.213-6.751l1.119-3.25c.76-2.793 1.394-6.793 2.006-14.597 .101-1.279.2-2.704.285-3.987-1.05,2.19-2.81,5.629-6.018,10.44zm6.307-11.045c-.016,1.348-.073,2.932-.232,4.402-.261,2.411-.521,8.847-1.765,14.15 .075.281-.209.353-.038,1.034 .189.759-.096.569.189,1.803 .278,1.207-.076.511.174,1.012 .762-6.541 1.752-18.61 2.134-23.38l-.462.979zm-21.681,30.995c.016.017.028.025.028.025s-.011.001-.028-.025zm-.096-.071 .011.021-.011-.021zm.272-.656 .004-.001c-.053.031-.149.098-.301.235 .107-.12.215-.191.297-.234zm-.093.024c-.074.031-.095.022-.153.112 .025-.057.024-.103.292-.158l-.046.022c-.03.003-.061.01-.093.024zm.291-.083c.004-.003.007-.005.01-.007s-.005.006-.01.007z"/>
</svg>
