<svg width="29" height="29" viewBox="0 0 29 29" fill="none" xmlns="http://www.w3.org/2000/svg">
<g id="Route" clip-path="url(#clip0_62_655)">
<path id="Vector (Stroke)" fill-rule="evenodd" clip-rule="evenodd" d="M15.7486 4.76441C15.1292 4.08354 14.0751 4.03372 13.3942 4.65315C12.7133 5.27258 12.6635 6.32668 13.2829 7.00755C13.9024 7.68842 14.9565 7.73823 15.6373 7.1188C16.3182 6.49938 16.368 5.44528 15.7486 4.76441ZM12.2726 3.42033C13.6344 2.18147 15.7426 2.28109 16.9814 3.64284C18.2203 5.00458 18.1207 7.11277 16.7589 8.35163C15.3972 9.59048 13.289 9.49086 12.0501 8.12912C10.8113 6.76737 10.9109 4.65918 12.2726 3.42033Z" fill="#101828"/>
<path id="Vector (Stroke)_2" fill-rule="evenodd" clip-rule="evenodd" d="M14.9698 21.2452C14.3504 20.5643 13.2963 20.5145 12.6154 21.1339C11.9345 21.7534 11.8847 22.8074 12.5041 23.4883C13.1236 24.1692 14.1777 24.219 14.8585 23.5996C15.5394 22.9801 15.5892 21.926 14.9698 21.2452ZM11.4938 19.9011C12.8556 18.6622 14.9638 18.7619 16.2026 20.1236C17.4415 21.4854 17.3418 23.5935 15.9801 24.8324C14.6184 26.0713 12.5102 25.9716 11.2713 24.6099C10.0325 23.2481 10.1321 21.14 11.4938 19.9011Z" fill="#101828"/>
<path id="Vector (Stroke)_3" fill-rule="evenodd" clip-rule="evenodd" d="M17.3199 8.96806C17.6604 8.65835 18.1874 8.68326 18.4971 9.02369L22.0301 12.9071C23.7672 14.8166 21.8955 17.7777 19.4315 16.9502L8.85378 13.4996C8.06819 13.2344 7.39964 14.1622 8.01677 14.8405L10.9889 18.1075C11.2986 18.4479 11.2737 18.975 10.9333 19.2847C10.5929 19.5944 10.0658 19.5695 9.7561 19.2291L6.78394 15.9621C5.0468 14.0526 6.91853 11.0915 9.38244 11.919L19.9602 15.3696C20.7458 15.6347 21.4144 14.707 20.7973 14.0287L17.2643 10.1453C16.9546 9.80483 16.9795 9.27778 17.3199 8.96806Z" fill="#101828"/>
</g>
<defs>
<clipPath id="clip0_62_655">
<rect width="20" height="20" fill="white" transform="translate(14.7939) rotate(47.7055)"/>
</clipPath>
</defs>
</svg>
